<?xml version="1.0" standalone="no"?>
<!DOCTYPE svg PUBLIC "-//W3C//DTD SVG 20010904//EN"
 "http://www.w3.org/TR/2001/REC-SVG-20010904/DTD/svg10.dtd">
<svg version="1.0" xmlns="http://www.w3.org/2000/svg"
 width="386.000000pt" height="532.000000pt" viewBox="0 0 386.000000 532.000000"
 preserveAspectRatio="xMidYMid meet">

<g transform="translate(0.000000,532.000000) scale(0.100000,-0.100000)"
fill="#000000" stroke="none">
<path d="M1708 4433 c-16 -4 -18 -20 -18 -149 l0 -144 25 -10 c14 -5 25 -11
25 -12 0 -2 -14 -46 -30 -98 -25 -81 -30 -111 -30 -206 0 -76 5 -125 16 -158
9 -26 15 -48 13 -50 -7 -5 -203 -109 -329 -173 -69 -36 -128 -70 -133 -76 -8
-12 -3 -217 5 -247 3 -8 9 -33 15 -55 7 -26 13 -342 17 -905 5 -747 4 -872 -9
-920 -18 -66 -19 -140 -3 -175 7 -16 24 -29 47 -36 24 -6 239 -9 631 -7 704 4
649 -6 650 118 0 41 -7 102 -15 135 -22 90 -22 1590 0 1685 19 83 47 259 53
328 4 48 1 55 -26 80 -16 15 -127 77 -246 137 -139 71 -216 115 -216 125 1 8
7 26 15 40 10 18 14 60 15 149 0 122 -10 176 -52 281 -8 21 -6 28 19 47 l28
23 0 137 0 138 -225 1 c-124 1 -233 0 -242 -3z m182 -144 c0 -119 0 -120 -22
-117 -22 3 -23 7 -26 121 l-3 117 26 0 25 0 0 -121z m-28 -266 c-4 -32 -7 -98
-7 -148 l0 -90 115 -5 115 -5 -3 -39 c-2 -21 -12 -66 -23 -98 -13 -43 -16 -65
-9 -78 5 -10 87 -73 180 -140 109 -78 175 -131 181 -147 6 -15 6 -82 2 -172
l-8 -146 -450 -5 -450 -5 0 -103 c0 -57 3 -106 7 -108 3 -2 46 11 95 30 177
68 387 75 560 18 104 -35 193 -77 193 -93 0 -5 -9 -28 -20 -49 -20 -39 -45
-51 -66 -31 -5 5 -39 20 -76 35 -201 79 -420 75 -610 -12 l-78 -35 0 -74 c0
-63 -4 -80 -25 -111 -40 -58 -65 -153 -65 -246 0 -98 17 -160 64 -239 34 -56
35 -63 38 -165 l3 -107 413 -3 413 -2 -3 -28 -3 -27 -407 -3 c-260 -1 -408 -6
-409 -12 -1 -6 -1 -17 -1 -25 0 -48 -27 -45 427 -45 l425 0 0 -123 c0 -130 -7
-154 -52 -178 -72 -38 -326 -64 -557 -56 -260 9 -326 31 -348 121 -14 56 -14
49 -25 871 -5 379 -15 729 -24 877 -15 222 -15 250 -1 271 8 12 66 51 128 86
266 146 303 168 312 182 7 11 2 35 -15 80 -14 35 -28 81 -31 101 -5 32 -3 37
15 40 17 3 21 12 24 68 5 75 21 171 34 206 17 44 29 26 22 -33z m198 -1424
c117 -41 208 -127 267 -254 26 -55 28 -70 28 -175 0 -110 -1 -118 -33 -182
-98 -199 -297 -301 -504 -257 -161 34 -302 168 -343 325 -43 165 4 325 131
443 131 123 290 158 454 100z"/>
<path d="M2150 2345 c22 -23 23 -30 21 -172 -2 -135 -4 -149 -22 -163 -41 -32
-220 -130 -237 -130 -9 0 -71 31 -137 69 l-120 68 -3 109 c-2 63 -7 113 -14
119 -8 7 -9 6 -4 -2 3 -6 2 -14 -4 -18 -6 -4 -10 -51 -10 -113 l0 -107 93 -55
c139 -83 189 -110 201 -110 14 0 255 142 280 165 16 16 18 29 12 144 -3 69 -5
141 -6 158 0 26 -6 36 -30 48 -41 21 -47 19 -20 -10z"/>
<path d="M1960 2337 c-19 -6 -37 -14 -40 -17 -5 -7 -106 -33 -127 -33 -7 0
-13 -9 -13 -19 0 -17 11 -18 136 -18 131 0 135 1 130 20 -3 11 -9 29 -12 40
-3 11 -13 20 -22 20 -15 0 -15 2 -2 10 13 9 13 10 0 9 -8 -1 -31 -6 -50 -12z"/>
<path d="M1856 2185 c8 -20 13 -48 12 -63 -3 -26 -1 -27 45 -30 l47 -3 0 46
c0 26 5 55 10 66 10 18 7 19 -59 19 l-70 0 15 -35z"/>
<path d="M1739 2170 l-34 -28 27 -54 c66 -126 84 -140 126 -95 29 30 28 51 -3
71 -18 12 -25 25 -25 47 0 37 -14 65 -39 78 -14 8 -25 4 -52 -19z"/>
<path d="M2024 2182 c-12 -10 -24 -34 -27 -56 -4 -22 -17 -51 -32 -66 -31 -32
-31 -41 -2 -68 43 -41 61 -30 112 65 l47 87 -33 28 c-40 33 -38 32 -65 10z"/>
</g>
</svg>
